<svg version="1.1" id="Layer_1" xmlns="http://www.w3.org/2000/svg" xmlns:xlink="http://www.w3.org/1999/xlink" x="0px" y="0px"
	 width="100%" viewBox="0 0 230 220" enable-background="new 0 0 230 220" xml:space="preserve">
<path fill="#FEFEFF" opacity="1.000000" stroke="none" 
	d="
M159.000000,221.000000 
	C106.000000,221.000000 53.500008,221.000000 1.000007,221.000000 
	C1.000005,147.666672 1.000005,74.333351 1.000002,1.000017 
	C77.666656,1.000011 154.333313,1.000011 230.999969,1.000006 
	C230.999985,74.333321 230.999985,147.666641 231.000000,220.999969 
	C207.166672,221.000000 183.333328,221.000000 159.000000,221.000000 
M138.984299,187.712875 
	C137.906235,187.489197 136.522293,186.746857 135.820297,187.160858 
	C134.709320,187.816071 134.055069,189.245728 133.051956,190.549973 
	C131.086777,187.778244 135.891373,183.425125 130.114670,182.423248 
	C129.343826,187.375977 128.593475,192.196991 127.843124,197.018021 
	C128.343506,197.244415 128.843872,197.470795 129.344238,197.697174 
	C130.364868,196.242386 131.385498,194.787598 132.197495,193.630203 
	C133.523087,194.883820 134.935837,196.219864 135.654510,196.899506 
	C137.024353,193.479904 138.037888,190.949783 139.798141,189.078629 
	C140.250290,191.799301 139.817123,195.475555 141.416794,196.957626 
	C142.863098,198.297577 146.530060,197.240646 149.640701,197.240646 
	C150.171494,193.670197 150.686844,190.203552 151.478775,184.876495 
	C146.484009,186.345749 142.734787,187.448624 138.984299,187.712875 
M126.455421,122.039825 
	C125.942726,121.825356 125.430023,121.610886 124.136826,121.047363 
	C122.426743,121.054504 120.716652,121.061646 118.381767,120.965088 
	C118.117455,121.240097 117.853142,121.515106 117.397263,122.607643 
	C117.397263,136.934540 117.397263,151.261429 117.397263,165.741409 
	C120.039703,165.741409 122.011864,165.741409 124.504044,165.858032 
	C124.614311,165.567017 124.724579,165.275986 125.017448,164.067139 
	C125.017448,158.841003 125.017448,153.614868 125.017448,148.116821 
	C134.794083,152.766434 141.428925,151.740005 146.383682,145.190826 
	C150.853668,139.282425 150.545609,129.669830 145.562820,124.455360 
	C140.606201,119.268280 132.891464,117.794975 126.455421,122.039825 
M136.437363,78.987946 
	C137.635605,77.611351 138.990585,76.340767 140.005478,74.840164 
	C144.885880,67.623955 144.039642,59.517853 138.651596,52.683361 
	C134.406769,47.299015 128.401321,46.440666 122.534386,45.030899 
	C118.340393,44.023129 113.982430,43.671539 109.824081,42.555832 
	C108.355247,42.161736 107.261139,40.370960 105.995949,39.217846 
	C107.251419,38.126160 108.406952,36.266075 109.781174,36.087326 
	C113.851387,35.557903 118.071022,35.189774 122.114082,35.698151 
	C126.786743,36.285690 131.333588,37.873863 136.183563,39.089878 
	C137.552475,34.557598 138.833298,30.317032 140.306839,25.438377 
	C136.013519,24.011826 132.057999,22.283247 127.921936,21.402174 
	C116.287117,18.923695 104.887344,19.038080 95.483231,27.677477 
	C86.595573,35.842403 88.527016,49.498550 99.328423,54.828465 
	C103.432953,56.853832 108.086952,57.836044 112.563789,59.015587 
	C116.569801,60.071079 120.744423,60.510635 124.716064,61.664520 
	C127.567039,62.492817 129.232529,64.975845 126.488724,67.187920 
	C124.345695,68.915619 121.131210,69.877602 118.308983,70.095924 
	C109.142792,70.804962 100.934959,67.753441 93.436920,62.255157 
	C92.094612,66.352028 90.640945,70.081863 89.736122,73.940392 
	C89.426613,75.260269 90.011726,77.626572 91.004868,78.287552 
	C102.612038,86.012657 124.752579,88.513924 136.437363,78.987946 
M58.858410,146.256836 
	C58.868107,142.094910 58.756058,137.928177 58.920074,133.772339 
	C59.101810,129.167755 61.586967,126.732315 65.641350,126.832932 
	C70.154236,126.944923 71.032120,129.912552 71.017868,133.625992 
	C70.997055,139.049744 71.012520,144.473633 71.012520,149.715607 
	C73.986809,149.715607 76.244904,149.715607 78.255005,149.715607 
	C78.255005,142.278168 78.520355,135.152725 78.141296,128.061722 
	C77.956123,124.597679 76.500298,120.944832 72.289879,120.550087 
	C67.904205,120.138916 63.450024,120.458366 58.516544,120.458366 
	C58.516544,116.592331 58.516544,112.018181 58.516544,107.588364 
	C55.777546,107.588364 53.531898,107.588364 51.301788,107.588364 
	C51.301788,121.868225 51.301788,135.780975 51.301788,150.178421 
	C54.049904,148.982941 57.995686,152.592133 58.858410,146.256836 
M190.512421,147.601822 
	C188.132538,153.563400 185.752655,159.524963 183.350204,165.543045 
	C191.542953,166.308502 191.556824,166.314453 194.507980,159.444962 
	C197.128204,153.345764 199.703491,147.227264 202.316055,141.124756 
	C205.232925,134.311462 208.169449,127.506584 211.165833,120.538948 
	C202.728027,119.810516 202.733749,119.812897 199.802521,126.858078 
	C198.413773,130.195969 196.998337,133.522766 195.219421,137.746246 
	C193.459885,133.573502 191.993576,130.120941 190.546921,126.660172 
	C187.632202,119.687408 187.636612,119.685562 179.273102,120.611588 
	C182.935165,129.426392 186.553101,138.134979 190.512421,147.601822 
M92.120461,120.719284 
	C90.033455,122.312721 87.620140,123.619659 85.921600,125.554176 
	C81.134384,131.006470 81.366814,139.651978 86.129211,145.258209 
	C91.218781,151.249603 100.175972,152.685272 106.957466,148.596573 
	C113.521843,144.638794 116.554764,136.479279 113.537590,129.571609 
	C111.110420,124.014778 104.853142,117.998726 96.468330,120.310211 
	C95.312668,120.628792 93.999542,120.376183 92.120461,120.719284 
M162.325745,130.102921 
	C159.546188,128.475220 160.329254,127.068199 162.935867,127.057098 
	C167.129135,127.039230 171.325333,127.710854 175.763611,128.113220 
	C176.265198,126.468521 176.875214,124.468277 177.459930,122.550995 
	C170.715942,118.805946 162.607727,117.960320 157.729019,121.380219 
	C155.343262,123.052574 153.239609,126.294693 152.700516,129.146255 
	C151.984802,132.931839 154.899490,135.616379 158.503357,136.795547 
	C161.484482,137.770950 164.632294,138.225235 167.665436,139.058868 
	C168.903793,139.399216 170.034561,140.131012 171.680328,140.903473 
	C170.547058,141.980270 170.055328,142.822067 169.637054,142.787018 
	C165.460724,142.437149 161.303497,141.845764 157.124863,141.545273 
	C155.779510,141.448502 153.460907,141.659912 153.202637,142.341934 
	C152.609482,143.908401 152.241577,146.606888 153.134857,147.514221 
	C157.814484,152.267502 171.141342,152.057205 176.017441,147.525589 
	C180.326431,143.521027 180.163437,137.366318 175.024094,134.446030 
	C171.452393,132.416519 167.127930,131.711792 162.325745,130.102921 
M35.246117,143.624481 
	C32.218018,142.903900 29.217611,141.984253 26.148664,141.557312 
	C24.859381,141.377975 22.511965,141.928940 22.250010,142.695877 
	C21.731136,144.215012 21.639694,146.880753 22.580929,147.726257 
	C26.854109,151.564804 37.511406,151.973969 42.491791,148.993469 
	C45.994648,146.897171 47.484955,143.680023 47.256142,139.782150 
	C47.025055,135.845474 44.541538,133.481918 40.885555,132.412262 
	C38.668613,131.763641 36.333488,131.518066 34.118183,130.865067 
	C32.468994,130.378922 30.926832,129.529694 29.337000,128.842178 
	C29.510592,128.141846 29.684181,127.441521 29.857773,126.741196 
	C34.565437,127.170105 39.273102,127.599022 44.098740,128.038681 
	C46.413506,122.150963 45.878929,120.558144 39.372311,120.067261 
	C34.949230,119.733582 30.064056,120.232536 25.995043,121.871964 
	C21.185362,123.809814 20.001644,130.825912 23.633261,134.027557 
	C25.968367,136.086197 29.403551,136.979858 32.447308,138.125656 
	C34.890236,139.045273 37.485977,139.558975 40.013908,140.252792 
	C39.979237,140.784592 39.944565,141.316391 39.909893,141.848190 
	C38.643692,142.396271 37.377491,142.944351 35.246117,143.624481 
M126.446655,193.568497 
	C127.273041,190.785599 128.203201,187.189209 124.813728,186.340256 
	C122.344429,185.721786 117.544701,186.903214 116.748856,188.640457 
	C114.988861,192.482376 115.098122,197.180603 114.431091,201.621613 
	C115.566750,201.729507 116.449265,201.896011 116.477066,201.804077 
	C117.630966,197.988251 120.965057,197.442825 124.104683,196.450195 
	C124.913094,196.194595 125.434784,195.032135 126.446655,193.568497 
M92.155785,194.542557 
	C92.616959,195.375259 93.078125,196.207947 93.539291,197.040649 
	C94.768501,195.176773 95.997719,193.312897 97.367729,191.235550 
	C98.644547,191.035721 100.364006,190.766617 102.083466,190.497498 
	C102.054825,190.032745 102.026184,189.567978 101.997543,189.103210 
	C100.393005,188.680099 98.788460,188.256989 97.183922,187.833878 
	C97.005737,187.319016 96.827545,186.804169 96.649361,186.289322 
	C99.173828,185.240356 101.698296,184.191391 104.222763,183.142441 
	C104.156693,182.824524 104.090622,182.506607 104.024551,182.188690 
	C100.801003,182.188690 97.577446,182.188690 94.326454,182.188690 
	C93.621193,186.215179 92.965881,189.956512 92.155785,194.542557 
M72.284851,196.238205 
	C75.400024,193.998535 76.445549,190.755432 74.795403,187.572815 
	C74.082329,186.197510 71.136749,185.979752 68.855728,185.101593 
	C68.805054,184.409912 68.694275,182.897812 68.583504,181.385712 
	C68.010071,181.301270 67.436646,181.216827 66.863213,181.132385 
	C65.903122,186.159592 64.943031,191.186798 63.820522,197.064468 
	C66.832481,196.922623 69.223839,196.810013 72.284851,196.238205 
M83.988190,193.371948 
	C84.900688,191.320496 85.813187,189.269028 86.725685,187.217575 
	C86.268677,186.976151 85.811676,186.734726 85.354675,186.493317 
	C84.039574,188.621979 82.724472,190.750656 81.394951,192.902664 
	C80.485329,190.497147 79.604424,188.167572 78.723518,185.837982 
	C76.078148,190.982056 83.540688,197.147141 74.776527,201.048798 
	C76.812317,201.059845 78.696022,200.810257 79.769676,199.744583 
	C81.377045,198.149139 82.415092,195.980148 83.988190,193.371948 
M167.847260,186.768021 
	C166.883728,185.606125 165.920212,184.444229 164.666656,182.932602 
	C163.373901,184.481644 161.469086,185.757935 161.182831,187.329102 
	C160.679825,190.089981 160.844711,193.097427 161.411301,195.861938 
	C161.615021,196.855957 163.784073,197.447205 165.056198,198.222275 
	C164.425079,193.557816 164.137115,190.040802 167.847260,186.768021 
M104.605431,189.954041 
	C103.264938,197.046692 103.445793,197.397171 107.454102,196.807724 
	C107.911919,191.737549 108.353676,186.845169 108.847122,181.380386 
	C104.203941,182.769852 105.567230,186.492523 104.605431,189.954041 
M156.489929,187.769714 
	C155.445831,186.200470 154.039642,184.699112 153.213348,187.617477 
	C152.344147,190.687439 152.243271,193.974960 151.779160,197.368607 
	C152.934616,197.368607 153.740784,197.531937 153.833130,197.344193 
	C155.298843,194.364029 156.673416,191.339050 158.031708,188.307693 
	C158.033554,188.303558 157.480011,188.050583 156.489929,187.769714 
M112.770699,196.911987 
	C113.441200,193.422943 114.111702,189.933884 114.861267,186.033417 
	C113.427788,186.156067 112.038315,186.096802 111.996994,186.305054 
	C111.307266,189.781052 110.779182,193.289566 110.305061,196.802979 
	C110.298943,196.848282 111.458847,197.050919 112.770699,196.911987 
z"/>
<path fill="#4E32EC" opacity="1.000000" stroke="none" 
	d="
M136.151642,79.215408 
	C124.752579,88.513924 102.612038,86.012657 91.004868,78.287552 
	C90.011726,77.626572 89.426613,75.260269 89.736122,73.940392 
	C90.640945,70.081863 92.094612,66.352028 93.436920,62.255157 
	C100.934959,67.753441 109.142792,70.804962 118.308983,70.095924 
	C121.131210,69.877602 124.345695,68.915619 126.488724,67.187920 
	C129.232529,64.975845 127.567039,62.492817 124.716064,61.664520 
	C120.744423,60.510635 116.569801,60.071079 112.563789,59.015587 
	C108.086952,57.836044 103.432953,56.853832 99.328423,54.828465 
	C88.527016,49.498550 86.595573,35.842403 95.483231,27.677477 
	C104.887344,19.038080 116.287117,18.923695 127.921936,21.402174 
	C132.057999,22.283247 136.013519,24.011826 140.306839,25.438377 
	C138.833298,30.317032 137.552475,34.557598 136.183563,39.089878 
	C131.333588,37.873863 126.786743,36.285690 122.114082,35.698151 
	C118.071022,35.189774 113.851387,35.557903 109.781174,36.087326 
	C108.406952,36.266075 107.251419,38.126160 105.995949,39.217850 
	C107.261139,40.370960 108.355247,42.161736 109.824081,42.555832 
	C113.982430,43.671539 118.340393,44.023129 122.534386,45.030899 
	C128.401321,46.440666 134.406769,47.299015 138.651596,52.683361 
	C144.039642,59.517853 144.885880,67.623955 140.005478,74.840164 
	C138.990585,76.340767 137.635605,77.611351 136.151642,79.215408 
z"/>
<path fill="#4E32EC" opacity="1.000000" stroke="none" 
	d="
M123.984016,165.741409 
	C122.011864,165.741409 120.039703,165.741409 117.397263,165.741409 
	C117.397263,151.261429 117.397263,136.934540 117.769066,122.174942 
	C118.429436,121.517754 118.718002,121.293274 119.006569,121.068787 
	C120.716652,121.061646 122.426743,121.054504 124.541626,121.510498 
	C125.642868,121.986511 126.339317,121.999382 127.035767,122.012253 
	C132.891464,117.794975 140.606201,119.268280 145.562820,124.455360 
	C150.545609,129.669830 150.853668,139.282425 146.383682,145.190826 
	C141.428925,151.740005 134.794083,152.766434 125.017448,148.116821 
	C125.017448,153.614868 125.017448,158.841003 124.741516,164.597809 
	C124.228546,165.272659 124.068024,165.476974 123.984016,165.741409 
M141.116837,138.404388 
	C143.106339,133.653778 141.123611,130.293991 137.087967,128.028168 
	C133.154465,125.819710 129.667313,127.111717 126.956207,130.423111 
	C123.943283,134.103149 124.664520,138.925964 128.481293,141.831482 
	C132.565643,144.940689 136.804855,144.010712 141.116837,138.404388 
z"/>
<path fill="#5237ED" opacity="1.000000" stroke="none" 
	d="
M58.857689,146.727325 
	C57.995686,152.592133 54.049904,148.982941 51.301788,150.178421 
	C51.301788,135.780975 51.301788,121.868225 51.301788,107.588364 
	C53.531898,107.588364 55.777546,107.588364 58.516544,107.588364 
	C58.516544,112.018181 58.516544,116.592331 58.516544,120.458366 
	C63.450024,120.458366 67.904205,120.138916 72.289879,120.550087 
	C76.500298,120.944832 77.956123,124.597679 78.141296,128.061722 
	C78.520355,135.152725 78.255005,142.278168 78.255005,149.715607 
	C76.244904,149.715607 73.986809,149.715607 71.012520,149.715607 
	C71.012520,144.473633 70.997055,139.049744 71.017868,133.625992 
	C71.032120,129.912552 70.154236,126.944923 65.641350,126.832932 
	C61.586967,126.732315 59.101810,129.167755 58.920074,133.772339 
	C58.756058,137.928177 58.868107,142.094910 58.857689,146.727325 
z"/>
<path fill="#5135EC" opacity="1.000000" stroke="none" 
	d="
M190.341736,147.222687 
	C186.553101,138.134979 182.935165,129.426392 179.273102,120.611588 
	C187.636612,119.685562 187.632202,119.687408 190.546921,126.660172 
	C191.993576,130.120941 193.459885,133.573502 195.219421,137.746246 
	C196.998337,133.522766 198.413773,130.195969 199.802521,126.858078 
	C202.733749,119.812897 202.728027,119.810516 211.165833,120.538948 
	C208.169449,127.506584 205.232925,134.311462 202.316055,141.124756 
	C199.703491,147.227264 197.128204,153.345764 194.507980,159.444962 
	C191.556824,166.314453 191.542953,166.308502 183.350204,165.543045 
	C185.752655,159.524963 188.132538,153.563400 190.341736,147.222687 
z"/>
<path fill="#5034EC" opacity="1.000000" stroke="none" 
	d="
M92.439888,120.553650 
	C93.999542,120.376183 95.312668,120.628792 96.468330,120.310211 
	C104.853142,117.998726 111.110420,124.014778 113.537590,129.571609 
	C116.554764,136.479279 113.521843,144.638794 106.957466,148.596573 
	C100.175972,152.685272 91.218781,151.249603 86.129211,145.258209 
	C81.366814,139.651978 81.134384,131.006470 85.921600,125.554176 
	C87.620140,123.619659 90.033455,122.312721 92.439888,120.553650 
M98.510635,143.155426 
	C104.972153,142.083923 108.346649,137.693573 106.391281,132.706558 
	C104.828979,128.722046 101.812592,126.504623 97.477028,127.106735 
	C93.218582,127.698143 90.381088,130.514526 90.244507,134.747726 
	C90.092590,139.455933 92.835205,142.439621 98.510635,143.155426 
z"/>
<path fill="#5035EC" opacity="1.000000" stroke="none" 
	d="
M162.732758,130.259064 
	C167.127930,131.711792 171.452393,132.416519 175.024094,134.446030 
	C180.163437,137.366318 180.326431,143.521027 176.017441,147.525589 
	C171.141342,152.057205 157.814484,152.267502 153.134857,147.514221 
	C152.241577,146.606888 152.609482,143.908401 153.202637,142.341934 
	C153.460907,141.659912 155.779510,141.448502 157.124863,141.545273 
	C161.303497,141.845764 165.460724,142.437149 169.637054,142.787018 
	C170.055328,142.822067 170.547058,141.980270 171.680328,140.903473 
	C170.034561,140.131012 168.903793,139.399216 167.665436,139.058868 
	C164.632294,138.225235 161.484482,137.770950 158.503357,136.795547 
	C154.899490,135.616379 151.984802,132.931839 152.700516,129.146255 
	C153.239609,126.294693 155.343262,123.052574 157.729019,121.380219 
	C162.607727,117.960320 170.715942,118.805946 177.459930,122.550995 
	C176.875214,124.468277 176.265198,126.468521 175.763611,128.113220 
	C171.325333,127.710854 167.129135,127.039230 162.935867,127.057098 
	C160.329254,127.068199 159.546188,128.475220 162.732758,130.259064 
z"/>
<path fill="#4F33EC" opacity="1.000000" stroke="none" 
	d="
M35.678703,143.558441 
	C37.377491,142.944351 38.643692,142.396271 39.909893,141.848190 
	C39.944565,141.316391 39.979237,140.784592 40.013908,140.252792 
	C37.485977,139.558975 34.890236,139.045273 32.447308,138.125656 
	C29.403551,136.979858 25.968367,136.086197 23.633261,134.027557 
	C20.001644,130.825912 21.185362,123.809814 25.995043,121.871964 
	C30.064056,120.232536 34.949230,119.733582 39.372311,120.067261 
	C45.878929,120.558144 46.413506,122.150963 44.098740,128.038681 
	C39.273102,127.599022 34.565437,127.170105 29.857773,126.741196 
	C29.684181,127.441521 29.510592,128.141846 29.337000,128.842178 
	C30.926832,129.529694 32.468994,130.378922 34.118183,130.865067 
	C36.333488,131.518066 38.668613,131.763641 40.885555,132.412262 
	C44.541538,133.481918 47.025055,135.845474 47.256142,139.782150 
	C47.484955,143.680023 45.994648,146.897171 42.491791,148.993469 
	C37.511406,151.973969 26.854109,151.564804 22.580929,147.726257 
	C21.639694,146.880753 21.731136,144.215012 22.250010,142.695877 
	C22.511965,141.928940 24.859381,141.377975 26.148664,141.557312 
	C29.217611,141.984253 32.218018,142.903900 35.678703,143.558441 
z"/>
<path fill="#656667" opacity="1.000000" stroke="none" 
	d="
M138.985580,188.551498 
	C142.734787,187.448624 146.484009,186.345749 151.478775,184.876495 
	C150.686844,190.203552 150.171494,193.670197 149.640701,197.240646 
	C146.530060,197.240646 142.863098,198.297577 141.416794,196.957626 
	C139.817123,195.475555 140.250290,191.799301 139.413147,188.784180 
	C139.028137,188.489731 138.985580,188.551498 138.985580,188.551498 
z"/>
<path fill="#5A5B5D" opacity="1.000000" stroke="none" 
	d="
M126.267418,193.927368 
	C125.434784,195.032135 124.913094,196.194595 124.104683,196.450195 
	C120.965057,197.442825 117.630966,197.988251 116.477066,201.804077 
	C116.449265,201.896011 115.566750,201.729507 114.431091,201.621613 
	C115.098122,197.180603 114.988861,192.482376 116.748856,188.640457 
	C117.544701,186.903214 122.344429,185.721786 124.813728,186.340256 
	C128.203201,187.189209 127.273041,190.785599 126.267418,193.927368 
M123.852798,191.303787 
	C123.151367,190.505203 122.449944,189.706604 121.748505,188.908020 
	C120.637962,190.613312 119.527428,192.318604 118.416893,194.023911 
	C118.977135,194.498535 119.537376,194.973160 120.097626,195.447784 
	C121.294479,194.322723 122.491333,193.197662 123.852798,191.303787 
z"/>
<path fill="#595A5C" opacity="1.000000" stroke="none" 
	d="
M92.233185,194.120193 
	C92.965881,189.956512 93.621193,186.215179 94.326454,182.188690 
	C97.577446,182.188690 100.801003,182.188690 104.024551,182.188690 
	C104.090622,182.506607 104.156693,182.824524 104.222763,183.142441 
	C101.698296,184.191391 99.173828,185.240356 96.649361,186.289322 
	C96.827545,186.804169 97.005737,187.319016 97.183922,187.833878 
	C98.788460,188.256989 100.393005,188.680099 101.997543,189.103210 
	C102.026184,189.567978 102.054825,190.032745 102.083466,190.497498 
	C100.364006,190.766617 98.644547,191.035721 97.367729,191.235550 
	C95.997719,193.312897 94.768501,195.176773 93.539291,197.040649 
	C93.078125,196.207947 92.616959,195.375259 92.233185,194.120193 
z"/>
<path fill="#58595B" opacity="1.000000" stroke="none" 
	d="
M138.984940,188.132187 
	C138.985580,188.551498 139.028137,188.489731 139.039764,188.454697 
	C138.037888,190.949783 137.024353,193.479904 135.654510,196.899506 
	C134.935837,196.219864 133.523087,194.883820 132.197495,193.630203 
	C131.385498,194.787598 130.364868,196.242386 129.344238,197.697174 
	C128.843872,197.470795 128.343506,197.244415 127.843124,197.018021 
	C128.593475,192.196991 129.343826,187.375977 130.114670,182.423248 
	C135.891373,183.425125 131.086777,187.778244 133.051956,190.549973 
	C134.055069,189.245728 134.709320,187.816071 135.820297,187.160858 
	C136.522293,186.746857 137.906235,187.489197 138.984940,188.132187 
z"/>
<path fill="#59595B" opacity="1.000000" stroke="none" 
	d="
M71.950027,196.467804 
	C69.223839,196.810013 66.832481,196.922623 63.820522,197.064468 
	C64.943031,191.186798 65.903122,186.159592 66.863213,181.132385 
	C67.436646,181.216827 68.010071,181.301270 68.583504,181.385712 
	C68.694275,182.897812 68.805054,184.409912 68.855728,185.101593 
	C71.136749,185.979752 74.082329,186.197510 74.795403,187.572815 
	C76.445549,190.755432 75.400024,193.998535 71.950027,196.467804 
M70.103989,188.375900 
	C68.906944,190.273621 67.709892,192.171341 66.512848,194.069061 
	C67.050186,194.579407 67.587532,195.089737 68.124878,195.600067 
	C69.647324,194.410812 71.546341,193.459167 72.516525,191.921478 
	C72.935104,191.258057 71.432381,189.382416 70.103989,188.375900 
z"/>
<path fill="#58595B" opacity="1.000000" stroke="none" 
	d="
M83.841736,193.713531 
	C82.415092,195.980148 81.377045,198.149139 79.769676,199.744583 
	C78.696022,200.810257 76.812317,201.059845 74.776527,201.048798 
	C83.540688,197.147141 76.078148,190.982056 78.723518,185.837982 
	C79.604424,188.167572 80.485329,190.497147 81.394951,192.902664 
	C82.724472,190.750656 84.039574,188.621979 85.354675,186.493317 
	C85.811676,186.734726 86.268677,186.976151 86.725685,187.217575 
	C85.813187,189.269028 84.900688,191.320496 83.841736,193.713531 
z"/>
<path fill="#666768" opacity="1.000000" stroke="none" 
	d="
M167.910431,187.148926 
	C164.137115,190.040802 164.425079,193.557816 165.056198,198.222275 
	C163.784073,197.447205 161.615021,196.855957 161.411301,195.861938 
	C160.844711,193.097427 160.679825,190.089981 161.182831,187.329102 
	C161.469086,185.757935 163.373901,184.481644 164.666656,182.932602 
	C165.920212,184.444229 166.883728,185.606125 167.910431,187.148926 
z"/>
<path fill="#595A5C" opacity="1.000000" stroke="none" 
	d="
M104.690445,189.530396 
	C105.567230,186.492523 104.203941,182.769852 108.847122,181.380386 
	C108.353676,186.845169 107.911919,191.737549 107.454102,196.807724 
	C103.445793,197.397171 103.264938,197.046692 104.690445,189.530396 
z"/>
<path fill="#5A5B5D" opacity="1.000000" stroke="none" 
	d="
M156.837921,187.841797 
	C157.480011,188.050583 158.033554,188.303558 158.031708,188.307693 
	C156.673416,191.339050 155.298843,194.364029 153.833130,197.344193 
	C153.740784,197.531937 152.934616,197.368607 151.779160,197.368607 
	C152.243271,193.974960 152.344147,190.687439 153.213348,187.617477 
	C154.039642,184.699112 155.445831,186.200470 156.837921,187.841797 
z"/>
<path fill="#5A5B5D" opacity="1.000000" stroke="none" 
	d="
M112.422592,197.046051 
	C111.458847,197.050919 110.298943,196.848282 110.305061,196.802979 
	C110.779182,193.289566 111.307266,189.781052 111.996994,186.305054 
	C112.038315,186.096802 113.427788,186.156067 114.861267,186.033417 
	C114.111702,189.933884 113.441200,193.422943 112.422592,197.046051 
z"/>
<path fill="#6B55EF" opacity="1.000000" stroke="none" 
	d="
M126.745590,122.026039 
	C126.339317,121.999382 125.642868,121.986511 124.931870,121.685028 
	C125.430023,121.610886 125.942726,121.825356 126.745590,122.026039 
z"/>
<path fill="#6B55EF" opacity="1.000000" stroke="none" 
	d="
M124.244034,165.799713 
	C124.068024,165.476974 124.228546,165.272659 124.650223,165.056732 
	C124.724579,165.275986 124.614311,165.567017 124.244034,165.799713 
z"/>
<path fill="#6B55EF" opacity="1.000000" stroke="none" 
	d="
M118.694168,121.016937 
	C118.718002,121.293274 118.429436,121.517754 117.864853,121.766174 
	C117.853142,121.515106 118.117455,121.240097 118.694168,121.016937 
z"/>
<path fill="#F9F8FE" opacity="1.000000" stroke="none" 
	d="
M140.984207,138.761063 
	C136.804855,144.010712 132.565643,144.940689 128.481293,141.831482 
	C124.664520,138.925964 123.943283,134.103149 126.956207,130.423111 
	C129.667313,127.111717 133.154465,125.819710 137.087967,128.028168 
	C141.123611,130.293991 143.106339,133.653778 140.984207,138.761063 
z"/>
<path fill="#FAF9FE" opacity="1.000000" stroke="none" 
	d="
M98.103851,143.135803 
	C92.835205,142.439621 90.092590,139.455933 90.244507,134.747726 
	C90.381088,130.514526 93.218582,127.698143 97.477028,127.106735 
	C101.812592,126.504623 104.828979,128.722046 106.391281,132.706558 
	C108.346649,137.693573 104.972153,142.083923 98.103851,143.135803 
z"/>
<path fill="#F0F0F0" opacity="1.000000" stroke="none" 
	d="
M123.770493,191.688202 
	C122.491333,193.197662 121.294479,194.322723 120.097626,195.447784 
	C119.537376,194.973160 118.977135,194.498535 118.416893,194.023911 
	C119.527428,192.318604 120.637962,190.613312 121.748505,188.908020 
	C122.449944,189.706604 123.151367,190.505203 123.770493,191.688202 
z"/>
<path fill="#F3F3F3" opacity="1.000000" stroke="none" 
	d="
M70.453224,188.216675 
	C71.432381,189.382416 72.935104,191.258057 72.516525,191.921478 
	C71.546341,193.459167 69.647324,194.410812 68.124878,195.600067 
	C67.587532,195.089737 67.050186,194.579407 66.512848,194.069061 
	C67.709892,192.171341 68.906944,190.273621 70.453224,188.216675 
z"/>
</svg>